<mxfile host="app.diagrams.net" agent="Mozilla/5.0 (X11; CrOS x86_64 14541.0.0) AppleWebKit/537.36 (KHTML, like Gecko) Chrome/137.0.0.0 Safari/537.36" version="28.0.6">
  <diagram name="PÃ¡gina-1" id="lBG2dlzL81i276e26TDd">
    <mxGraphModel dx="872" dy="431" grid="1" gridSize="10" guides="1" tooltips="1" connect="1" arrows="1" fold="1" page="1" pageScale="1" pageWidth="827" pageHeight="1169" math="0" shadow="0">
      <root>
        <mxCell id="0" />
        <mxCell id="1" parent="0" />
        <mxCell id="M0G1xanC44NiDwH8E57y-8" style="edgeStyle=orthogonalEdgeStyle;rounded=0;orthogonalLoop=1;jettySize=auto;html=1;exitX=1;exitY=0.5;exitDx=0;exitDy=0;entryX=0;entryY=0.5;entryDx=0;entryDy=0;" parent="1" source="M0G1xanC44NiDwH8E57y-1" target="M0G1xanC44NiDwH8E57y-7" edge="1">
          <mxGeometry relative="1" as="geometry" />
        </mxCell>
        <mxCell id="M0G1xanC44NiDwH8E57y-1" value="Clientes" style="whiteSpace=wrap;html=1;align=center;" parent="1" vertex="1">
          <mxGeometry x="80" y="120" width="100" height="40" as="geometry" />
        </mxCell>
        <mxCell id="M0G1xanC44NiDwH8E57y-2" value="Pedidos" style="shape=ext;margin=3;double=1;whiteSpace=wrap;html=1;align=center;" parent="1" vertex="1">
          <mxGeometry x="530" y="120" width="100" height="40" as="geometry" />
        </mxCell>
        <mxCell id="M0G1xanC44NiDwH8E57y-3" value="Libros" style="shape=ext;margin=3;double=1;whiteSpace=wrap;html=1;align=center;" parent="1" vertex="1">
          <mxGeometry x="530" y="240" width="100" height="40" as="geometry" />
        </mxCell>
        <mxCell id="M0G1xanC44NiDwH8E57y-4" value="Inventario" style="shape=ext;margin=3;double=1;whiteSpace=wrap;html=1;align=center;" parent="1" vertex="1">
          <mxGeometry x="750" y="180" width="100" height="40" as="geometry" />
        </mxCell>
        <mxCell id="M0G1xanC44NiDwH8E57y-5" value="Editoriales" style="whiteSpace=wrap;html=1;align=center;" parent="1" vertex="1">
          <mxGeometry x="530" y="380" width="100" height="40" as="geometry" />
        </mxCell>
        <mxCell id="M0G1xanC44NiDwH8E57y-10" style="edgeStyle=orthogonalEdgeStyle;rounded=0;orthogonalLoop=1;jettySize=auto;html=1;exitX=1;exitY=0.5;exitDx=0;exitDy=0;entryX=0;entryY=0.5;entryDx=0;entryDy=0;" parent="1" source="M0G1xanC44NiDwH8E57y-7" target="M0G1xanC44NiDwH8E57y-2" edge="1">
          <mxGeometry relative="1" as="geometry" />
        </mxCell>
        <mxCell id="M0G1xanC44NiDwH8E57y-7" value="Compra" style="shape=rhombus;perimeter=rhombusPerimeter;whiteSpace=wrap;html=1;align=center;" parent="1" vertex="1">
          <mxGeometry x="294" y="110" width="120" height="60" as="geometry" />
        </mxCell>
        <mxCell id="9tFHvyBg88bxmzfm6tZJ-4" value="(1,1)" style="text;html=1;align=center;verticalAlign=middle;whiteSpace=wrap;rounded=0;" vertex="1" parent="1">
          <mxGeometry x="170" y="140" width="60" height="30" as="geometry" />
        </mxCell>
      </root>
    </mxGraphModel>
  </diagram>
</mxfile>
